<?xml version="1.0" encoding="utf-8"?><!-- Uploaded to: SVG Repo, www.svgrepo.com, Generator: SVG Repo Mixer Tools -->
<svg fill="#000000" width="800px" height="800px" viewBox="0 0 24 24" id="discord" data-name="Flat Line" xmlns="http://www.w3.org/2000/svg" class="icon flat-line"><path id="secondary" d="M21,16.67A7.25,7.25,0,0,1,16,19l-1-3.33A16,16,0,0,1,12,16a16.39,16.39,0,0,1-3-.32L8,19a7.25,7.25,0,0,1-5-2.33A30,30,0,0,1,4.83,6.6,1,1,0,0,1,5.43,6,23.65,23.65,0,0,1,12,5a23.65,23.65,0,0,1,6.57,1,1,1,0,0,1,.6.59A30,30,0,0,1,21,16.67Z" style="fill: rgb(44, 169, 188); stroke-width: 2;"></path><path id="primary-upstroke" d="M15,10h.1m-6,0H9" style="fill: none; stroke: rgb(0, 0, 0); stroke-linecap: round; stroke-linejoin: round; stroke-width: 2.5;"></path><path id="primary" d="M21,16.67A7.25,7.25,0,0,1,16,19l-1-3.33A16,16,0,0,1,12,16a16.39,16.39,0,0,1-3-.32L8,19a7.25,7.25,0,0,1-5-2.33A30,30,0,0,1,4.83,6.6,1,1,0,0,1,5.43,6,23.65,23.65,0,0,1,12,5a23.65,23.65,0,0,1,6.57,1,1,1,0,0,1,.6.59A30,30,0,0,1,21,16.67Z" style="fill: none; stroke: rgb(0, 0, 0); stroke-linecap: round; stroke-linejoin: round; stroke-width: 2;"></path><path id="primary-2" data-name="primary" d="M7,15a13.38,13.38,0,0,0,5,1,13.38,13.38,0,0,0,5-1" style="fill: none; stroke: rgb(0, 0, 0); stroke-linecap: round; stroke-linejoin: round; stroke-width: 2;"></path></svg>