<?xml version="1.0" encoding="utf-8"?>
<!-- Uploaded to: SVG Repo, www.svgrepo.com, Generator: SVG Repo Mixer Tools -->
<svg fill="#000000" width="800px" height="800px" viewBox="-7.5 0 32 32" version="1.1" xmlns="http://www.w3.org/2000/svg">
<title>linkedin</title>
<path d="M0.92 11.32c-0.48 0-0.84 0.36-0.84 0.84v11.76c0 0.48 0.36 0.84 0.84 0.84s0.84-0.36 0.84-0.84v-11.76c0-0.48-0.36-0.84-0.84-0.84zM1.84 8.16c0 0.508-0.412 0.92-0.92 0.92s-0.92-0.412-0.92-0.92c0-0.508 0.412-0.92 0.92-0.92s0.92 0.412 0.92 0.92zM15.28 11.68c-1.8-0.96-4.44-0.28-8.040 2v-1.52c0-0.48-0.36-0.84-0.84-0.84s-0.84 0.36-0.84 0.84v11.76c0 0.48 0.36 0.84 0.84 0.84s0.84-0.36 0.84-0.84v-8.24c4.52-3.12 6.48-2.92 7.24-2.52 1.040 0.56 1.040 2.080 1.040 2.080v8.68c0 0.48 0.36 0.84 0.84 0.84s0.84-0.36 0.84-0.84v-8.64c0-0.12 0-2.56-1.92-3.6z"></path>
</svg>